<svg width="16" height="16" viewBox="0 0 16 16" fill="none" xmlns="http://www.w3.org/2000/svg">
<g clip-path="url(#clip0_1_396)">
<path d="M3.28711 8.47786L8.29688 2.22231C8.63533 1.8015 9.09329 1.56528 9.57066 1.56528C10.048 1.56528 10.506 1.8015 10.8444 2.22231L11.2338 2.70897L12.0142 1.73342L11.6249 1.24453C11.079 0.563582 10.3392 0.181152 9.56799 0.181152C8.79676 0.181152 8.05703 0.563582 7.51111 1.24453L2.50488 7.50231L3.28711 8.47786Z" fill="white"/>
<path d="M9.97508 4.28222L9.19464 3.30667L4.18308 9.57111C3.84455 9.99398 3.38549 10.2314 2.9069 10.2312C2.42831 10.231 1.96938 9.99317 1.63108 9.57C1.29279 9.14683 1.10283 8.57301 1.10299 7.97477C1.10316 7.37653 1.29344 6.80287 1.63197 6.38L5.95553 0.975556L5.17508 0L0.851529 5.40444C0.57629 5.74052 0.357133 6.14151 0.206751 6.5842C0.0563695 7.0269 -0.0222473 7.50249 -0.0245453 7.98343C-0.0268433 8.46437 0.0472232 8.9411 0.193364 9.38601C0.339504 9.83092 0.554814 10.2352 0.826822 10.5753C1.09883 10.9155 1.42213 11.1848 1.77799 11.3677C2.13385 11.5505 2.51521 11.6433 2.89996 11.6406C3.28471 11.638 3.66522 11.5399 4.01944 11.3521C4.37366 11.1643 4.69455 10.8906 4.96353 10.5467L9.97508 4.28222ZM14.9635 5.40444C14.4174 4.72404 13.6777 4.34198 12.9066 4.34198C12.1356 4.34198 11.3959 4.72404 10.8498 5.40444L5.8382 11.6689L6.61864 12.6444L11.6302 6.38C11.8826 6.06506 12.2041 5.8507 12.554 5.76401C12.9038 5.67731 13.2664 5.72216 13.5959 5.89289C13.9254 6.06362 14.207 6.35258 14.4051 6.72326C14.6033 7.09394 14.7092 7.52972 14.7093 7.97556C14.7102 8.27256 14.6635 8.56679 14.5719 8.84084C14.4803 9.11489 14.3457 9.36321 14.176 9.57111L9.85775 14.9756L10.64 15.9511L14.9635 10.5467C15.5083 9.86426 15.8142 8.93959 15.8142 7.97556C15.8142 7.01152 15.5083 6.08685 14.9635 5.40444V5.40444Z" fill="white"/>
<path d="M12.528 7.47314L7.51643 13.7354C7.17753 14.1577 6.71851 14.3948 6.23998 14.3948C5.76145 14.3948 5.30244 14.1577 4.96354 13.7354L4.57421 13.2465L3.79376 14.222L4.1831 14.7109C4.72925 15.3913 5.4689 15.7734 6.23998 15.7734C7.01107 15.7734 7.75072 15.3913 8.29687 14.7109L13.3084 8.44426L12.528 7.47314Z" fill="white"/>
</g>
<defs>
<clipPath id="clip0_1_396">
<rect width="16" height="16" fill="white"/>
</clipPath>
</defs>
</svg>
